<svg xmlns="http://www.w3.org/2000/svg" viewBox="0 0 329 78.48"><defs><style>.cls-1{fill:#fff;}</style></defs><title>Asset 24</title><g id="Layer_2" data-name="Layer 2"><g id="Layer_1-2" data-name="Layer 1"><path class="cls-1" d="M94.57,56.51a1.36,1.36,0,0,1-.4-1l.13-.6,16-43.08a2.41,2.41,0,0,1,2.4-1.67h7.35a2.41,2.41,0,0,1,2.4,1.67l16,43.08.13.6a1.31,1.31,0,0,1-.43,1,1.4,1.4,0,0,1-1,.4H131.3a1.94,1.94,0,0,1-1.94-1.27l-3.07-8.08H106.52l-3.07,8.08a1.94,1.94,0,0,1-1.94,1.27H95.57A1.36,1.36,0,0,1,94.57,56.51Zm14.29-16.7H124l-7.55-20.57Z"/><path class="cls-1" d="M144.53,56.44a1.54,1.54,0,0,1-.47-1.14V11.09a1.52,1.52,0,0,1,.47-1.17,1.61,1.61,0,0,1,1.14-.43h5.54a1.6,1.6,0,0,1,1.6,1.6V33.93L163.9,23.32q.2-.13.63-.5a2.62,2.62,0,0,1,.83-.5,3.22,3.22,0,0,1,1-.13h6.35a1.38,1.38,0,0,1,1.47,1.47,1.68,1.68,0,0,1-.67,1.2L159.89,37.74l15.3,16.56a1.69,1.69,0,0,1,.6,1.14,1.44,1.44,0,0,1-.4,1.07,1.36,1.36,0,0,1-1,.4H167.9a3,3,0,0,1-1.37-.23,5.23,5.23,0,0,1-1.1-.9L152.81,42.35v13a1.6,1.6,0,0,1-1.6,1.6h-5.54A1.54,1.54,0,0,1,144.53,56.44Z"/><path class="cls-1" d="M181.39,56.44a1.54,1.54,0,0,1-.47-1.14V11.09a1.52,1.52,0,0,1,.47-1.17,1.61,1.61,0,0,1,1.14-.43h5.54a1.6,1.6,0,0,1,1.6,1.6V33.93l11.09-10.62q.2-.13.63-.5a2.62,2.62,0,0,1,.83-.5,3.22,3.22,0,0,1,1-.13h6.35A1.38,1.38,0,0,1,211,23.65a1.68,1.68,0,0,1-.67,1.2L196.75,37.74,212,54.31a1.69,1.69,0,0,1,.6,1.14,1.44,1.44,0,0,1-.4,1.07,1.36,1.36,0,0,1-1,.4h-6.48a3,3,0,0,1-1.37-.23,5.23,5.23,0,0,1-1.1-.9L189.67,42.35v13a1.6,1.6,0,0,1-1.6,1.6h-5.54A1.54,1.54,0,0,1,181.39,56.44Z"/><path class="cls-1" d="M220.9,56.21a11.33,11.33,0,0,1-4.47-3.71,9.07,9.07,0,0,1,2-12.49,22,22,0,0,1,10.09-3.81l9.15-1.34v-1.4a5.89,5.89,0,0,0-1.47-4.34q-1.47-1.47-4.68-1.47a6.83,6.83,0,0,0-3.54.8,11.24,11.24,0,0,0-2.17,1.64l-1.1,1.1a1,1,0,0,1-1,.8h-5.21a1.47,1.47,0,0,1-1-.4,1.38,1.38,0,0,1-.43-1.07,7.06,7.06,0,0,1,1.64-3.77,12.78,12.78,0,0,1,4.84-3.67,18.62,18.62,0,0,1,8.08-1.57q7.88,0,11.49,3.54a12.43,12.43,0,0,1,3.61,9.28v21a1.61,1.61,0,0,1-.43,1.14,1.52,1.52,0,0,1-1.17.47h-5.54a1.6,1.6,0,0,1-1.6-1.6V52.7a11,11,0,0,1-4.14,3.51,14.57,14.57,0,0,1-6.68,1.37A14.19,14.19,0,0,1,220.9,56.21Zm14.53-7.45q2.34-2.4,2.34-6.95V40.48l-6.68,1.07q-7.68,1.2-7.68,5.14A3.74,3.74,0,0,0,225.17,50a7.52,7.52,0,0,0,4.24,1.17A8,8,0,0,0,235.43,48.76Z"/><path class="cls-1" d="M257.8,53.27q-3.61-4.31-3.94-11.52l-.07-2.2.07-2.2q.27-7.08,3.91-11.45t10.39-4.38a12.82,12.82,0,0,1,10.22,4.41V11.09a1.52,1.52,0,0,1,.47-1.17A1.61,1.61,0,0,1,280,9.49h5.81a1.5,1.5,0,0,1,1.6,1.6V55.31a1.61,1.61,0,0,1-.43,1.14,1.52,1.52,0,0,1-1.17.47h-5.41a1.6,1.6,0,0,1-1.6-1.6V52.84q-3.67,4.74-10.62,4.74Q261.4,57.58,257.8,53.27Zm18.53-5.34a10.79,10.79,0,0,0,2-6q.07-.8.07-2.54t-.07-2.6a9.22,9.22,0,0,0-2.07-5.68,6.87,6.87,0,0,0-5.61-2.34q-7.15,0-7.61,8.82l-.07,2,.07,2q.47,8.82,7.61,8.82A6.61,6.61,0,0,0,276.33,47.93Z"/><path class="cls-1" d="M299.48,53.57q-3.54-4-3.54-11V23.78a1.52,1.52,0,0,1,.47-1.17,1.61,1.61,0,0,1,1.14-.43h6a1.6,1.6,0,0,1,1.6,1.6V42.15q0,8.21,7.15,8.21a7.14,7.14,0,0,0,5.51-2.2,8.51,8.51,0,0,0,2-6V23.78a1.52,1.52,0,0,1,.47-1.17,1.61,1.61,0,0,1,1.14-.43h5.94a1.5,1.5,0,0,1,1.6,1.6V55.31a1.61,1.61,0,0,1-.43,1.14,1.52,1.52,0,0,1-1.17.47h-5.54a1.6,1.6,0,0,1-1.6-1.6V52.57q-3.67,5-11.09,5A12.26,12.26,0,0,1,299.48,53.57Z"/><path class="cls-1" d="M85.63,2.23A4.41,4.41,0,0,0,81.77,0H31.84A4.41,4.41,0,0,0,28,2.23a4.41,4.41,0,0,0,0,4.46l2.94,5.09H4.57a4.56,4.56,0,0,0-4,6.84L27.54,65.26a4.56,4.56,0,0,0,7.9,0L48.62,42.44l4.32,7.49a4.46,4.46,0,0,0,7.72,0l25-43.24A4.41,4.41,0,0,0,85.63,2.23ZM55.29,48.58l-5.1-8.84L62.37,18.63a4.56,4.56,0,0,0-4-6.84H34L30.32,5.34A1.76,1.76,0,0,1,31.84,2.7H81.77A1.76,1.76,0,0,1,83.3,5.34l-25,43.24a1.76,1.76,0,0,1-3,0ZM29.88,63.91,3,17.28a1.86,1.86,0,0,1,1.61-2.79H32.48L47.06,39.74l-14,24.17a1.86,1.86,0,0,1-3.23,0ZM58.42,14.48A1.86,1.86,0,0,1,60,17.28L48.62,37l-13-22.56Z"/><path class="cls-1" d="M66,53.54H47.58a4.47,4.47,0,0,0-3.88,6.71l9.23,16a4.48,4.48,0,0,0,7.75,0l9.23-16A4.47,4.47,0,0,0,66,53.54ZM58.35,74.9a1.77,1.77,0,0,1-3.07,0L46,58.91a1.77,1.77,0,0,1,1.54-2.66H66a1.77,1.77,0,0,1,1.54,2.66Z"/></g></g></svg>