<svg xmlns="http://www.w3.org/2000/svg" viewBox="0 0 113.57 113.57"><defs><style>.cls-1{fill:none;}.cls-2{fill:#0062ff;}</style></defs><title>Asset 21</title><g id="Layer_2" data-name="Layer 2"><g id="Layer_1-2" data-name="Layer 1"><path class="cls-1" d="M56.78,24.48a32.3,32.3,0,1,0,32.3,32.3A32.3,32.3,0,0,0,56.78,24.48Zm0,56.55A24.25,24.25,0,1,1,81,56.78,24.25,24.25,0,0,1,56.78,81Z"/><path class="cls-1" d="M56.78,8.81a48,48,0,1,0,48,48A48,48,0,0,0,56.78,8.81Zm0,88A40.07,40.07,0,1,1,96.86,56.78,40.07,40.07,0,0,1,56.78,96.86Z"/><path class="cls-2" d="M56.78,0a56.78,56.78,0,1,0,56.78,56.78A56.78,56.78,0,0,0,56.78,0Zm0,104.75a48,48,0,1,1,48-48A48,48,0,0,1,56.78,104.75Z"/><path class="cls-2" d="M56.78,65.17a8.39,8.39,0,1,1,8.39-8.39A8.39,8.39,0,0,1,56.78,65.17Z"/><path class="cls-2" d="M56.78,16.71A40.07,40.07,0,1,0,96.86,56.78,40.07,40.07,0,0,0,56.78,16.71Zm0,72.37a32.3,32.3,0,1,1,32.3-32.3A32.3,32.3,0,0,1,56.78,89.08Z"/><path class="cls-2" d="M56.78,32.54A24.25,24.25,0,1,0,81,56.78,24.25,24.25,0,0,0,56.78,32.54Zm0,40.23a16,16,0,1,1,16-16A16,16,0,0,1,56.78,72.76Z"/><circle class="cls-2" cx="56.78" cy="56.78" r="8.39"/></g></g></svg>