<svg xmlns="http://www.w3.org/2000/svg" viewBox="0 0 135.98 120.92"><defs><style>.cls-1{fill:#0062ff;}</style></defs><title>Asset 22</title><g id="Layer_2" data-name="Layer 2"><g id="Layer_1-2" data-name="Layer 1"><path class="cls-1" d="M65.3,0H9.75A9.76,9.76,0,0,0,0,9.75V65.3A9.76,9.76,0,0,0,9.75,75H65.3A9.76,9.76,0,0,0,75,65.3V9.75A9.76,9.76,0,0,0,65.3,0ZM56.65,59.79A65,65,0,0,1,37.81,49.31,49.14,49.14,0,0,1,18.3,59.6l-2.64-4.34c7.51-1.94,13.74-5,18.65-9.11a42.11,42.11,0,0,1-10.62-18H16.51V23.19h18.7a33.73,33.73,0,0,0-4.34-6.14l5-1.79a41.86,41.86,0,0,1,4.68,7.93H58.35V28.1H51.22A47.34,47.34,0,0,1,41.3,45.86a64.8,64.8,0,0,0,18.09,9.73Z"/><path class="cls-1" d="M28.41,28.1a37.48,37.48,0,0,0,9.4,14.69A39.71,39.71,0,0,0,46.12,28.1Z"/><path class="cls-1" d="M28.41,28.1H46.12a39.71,39.71,0,0,1-8.31,14.69A37.48,37.48,0,0,1,28.41,28.1Z"/><path class="cls-1" d="M117.9,100.22a2.76,2.76,0,0,1-1,2.17,3.51,3.51,0,0,1-2.36.89,3.08,3.08,0,0,1-2.89-1.95l-3.34-7.45H88.7l-3.34,7.45a3.16,3.16,0,0,1-1.22,1.47,3.27,3.27,0,0,1-1.72.47,3.54,3.54,0,0,1-2.34-.89A2.73,2.73,0,0,1,79,100.22a3.44,3.44,0,0,1,.33-1.45l15.35-33a3.59,3.59,0,0,1,1.53-1.7,4.42,4.42,0,0,1,4.39,0,3.6,3.6,0,0,1,1.53,1.7l15.41,33A3.43,3.43,0,0,1,117.9,100.22ZM91.14,88.32h14.68L98.49,71.8Z"/><path class="cls-1" d="M126.24,120.92H70.68a9.76,9.76,0,0,1-9.75-9.75V55.62a9.76,9.76,0,0,1,9.75-9.75h55.55A9.76,9.76,0,0,1,136,55.62v55.55A9.76,9.76,0,0,1,126.24,120.92ZM70.68,49.82a5.8,5.8,0,0,0-5.8,5.8v55.55a5.8,5.8,0,0,0,5.8,5.8h55.55a5.8,5.8,0,0,0,5.8-5.8V55.62a5.8,5.8,0,0,0-5.8-5.8Z"/></g></g></svg>